<?xml version="1.0" encoding="utf-8"?>
<!-- Svg Vector Icons : http://www.onlinewebfonts.com/icon -->
<!DOCTYPE svg PUBLIC "-//W3C//DTD SVG 1.1//EN" "http://www.w3.org/Graphics/SVG/1.1/DTD/svg11.dtd">
<svg version="1.1" xmlns="http://www.w3.org/2000/svg" xmlns:xlink="http://www.w3.org/1999/xlink" x="0px" y="0px" viewBox="0 0 1000 1000" xml:space="preserve">
<metadata> Svg Vector Icons : http://www.onlinewebfonts.com/icon </metadata>
<g><path d="M500,10c66.1,0,130.3,13,190.7,38.5c58.4,24.7,110.8,60,155.7,105c45,45,80.3,97.4,105,155.7C977,369.7,990,433.9,990,500c0,66.1-13,130.3-38.5,190.7c-24.7,58.4-60,110.8-105,155.7c-45,45-97.4,80.3-155.7,105C630.3,977,566.1,990,500,990c-66.1,0-130.3-13-190.7-38.5c-58.4-24.7-110.8-60-155.7-105c-45-45-80.3-97.4-105-155.7C23,630.3,10,566.1,10,500c0-66.1,13-130.3,38.5-190.7c24.7-58.4,60-110.8,105-155.7s97.4-80.3,155.7-105C369.7,23,433.9,10,500,10z M500,932.9c58.5,0,115.1-11.4,168.5-34c51.5-21.8,97.8-53,137.6-92.8c39.8-39.8,71-86.1,92.8-137.6c22.6-53.4,34-110,34-168.5c0-58.5-11.4-115.1-34-168.5c-21.8-51.5-53-97.8-92.8-137.6c-39.8-39.8-86.1-71-137.6-92.8c-53.4-22.6-110-34-168.5-34c-58.5,0-115.1,11.4-168.5,34c-51.5,21.8-97.8,53-137.6,92.8c-39.8,39.8-71,86.1-92.8,137.6c-22.6,53.4-34,110-34,168.5c0,58.5,11.4,115.1,34,168.5c21.8,51.5,53,97.8,92.8,137.6c39.8,39.8,86.1,71,137.6,92.8C384.9,921.4,441.5,932.9,500,932.9z"/><path d="M626.2,260.7c8.3,0,16.5,3.6,22.1,10.5c10,12.2,8.2,30.2-4,40.2L417.9,496.8l219.1,192.5c11.8,10.4,13,28.5,2.6,40.3c-10.4,11.8-28.5,13-40.3,2.6L354.9,517.5c-6.3-5.5-9.8-13.6-9.7-21.9c0.1-8.4,4-16.3,10.5-21.6l252.4-206.7C613.4,262.8,619.8,260.7,626.2,260.7z"/></g>
</svg>